<svg xmlns="http://www.w3.org/2000/svg" viewBox="0 0 24 24" width="48" height="48"><path d="M12 2C6.48 2 2 6.48 2 12c0 2.48.91 4.75 2.42 6.53l-.01.01L3.7 20l1.41-1.41C6.62 17.5 6 14.86 6 12c0-3.31 2.69-6 6-6s6 2.69 6 6c0 2.86-.62 5.5-1.71 7.59L19.3 20l-1.42-1.42-.01-.01C17.09 16.75 18 14.48 18 12c0-5.52-4.48-10-10-10zm4 15c0 1.11-.89 2-2 2s-2-.89-2-2h4zm2.47-4.24L15 15.31V10c0-1.1-.9-2-2-2s-2 .9-2 2v5.31l-1.47-1.47-.01-.01C8.53 13.73 8 12.46 8 11c0-2.21 1.79-4 4-4s4 1.79 4 4c0 1.46-.53 2.73-1.47 3.76z"/></svg>
